<mxfile host="app.diagrams.net" modified="2024-01-02T11:20:43.591Z" agent="Mozilla/5.0 (Macintosh; Intel Mac OS X 10_15_7) AppleWebKit/537.36 (KHTML, like Gecko) Chrome/120.0.0.0 Safari/537.36" version="22.1.16" etag="5fFZOZicLuwWMKhLnwqN" type="github">
  <diagram name="Page-1" id="DRJGh6UqGENvWFbanNM1">
    <mxGraphModel>
      <root>
        <mxCell id="0" />
        <mxCell id="1" parent="0" />
      </root>
    </mxGraphModel>
  </diagram>
</mxfile>
